<svg xmlns="http://www.w3.org/2000/svg" height="40" viewBox="0 -960 960 960" width="40"><path d="M447.667-120v-84.667Q392-215.333 354.833-249 317.667-282.667 301-337.333l62-25.333q16.333 48 47.5 72t77.167 24q45.666 0 75.833-22.167T593.667-352q0-41-25.667-63.833Q542.333-438.667 465-464q-76.666-24.333-111-62.167Q319.667-564 319.667-620q0-58.333 37.666-95 37.667-36.667 90.334-41.667V-840h66.666v83.333q46.667 6 79.167 31.834Q626-699 642.333-660l-62 26.666q-13.333-32-36.333-47t-61-15q-45.333 0-71 20.5t-25.667 54.167q0 36.334 30 58.334T525-516.667q68.333 20.667 101.833 61.5 33.5 40.834 33.5 99.834 0 65.666-38.666 103.666-38.667 38-107.334 48.334V-120h-66.666Z"/></svg>