<svg xmlns="http://www.w3.org/2000/svg" height="40" viewBox="0 -960 960 960" width="40"><path d="M198.667-326.667Q178-363.334 169-401q-9-37.667-9-77 0-132 94-226.333 94-94.334 226-94.334h31.001l-74.667-74.667L481-918l152.667 152.667L481-612.667 435.667-658l74-74H480q-104.667 0-179 74.5Q226.666-583 226.666-478q0 28 5.667 53.667 5.667 25.666 15 49l-48.666 48.666ZM477.667-40 325-192.666l152.667-152.667 44.666 44.666L447.666-226H480q104.667 0 179-74.5Q733.334-375 733.334-480q0-28-5.334-53.667-5.333-25.666-16-49l48.667-48.666q20.666 36.667 30 74.333Q800-519.333 800-480q0 132-94 226.333-94 94.334-226 94.334h-32.334l74.667 74.667L477.667-40Z"/></svg>