<svg xmlns="http://www.w3.org/2000/svg" height="40" viewBox="0 -960 960 960" width="40"><path d="M186.666-12q-27 0-46.833-19.833T120-78.666v-586.668q0-27 19.833-46.833T186.666-732h389.001l-66.666 66.666H186.666v586.668h586.668v-324.668L840-470.001v391.335q0 27-19.833 46.833T773.334-12H186.666ZM480-372Zm177-347 47.667 46.666L426.666-395v76.334H502l279.001-279.001L828-551 530-252H360v-170l297-297Zm171 168L657-719l100-100q19.333-19.333 47.374-19.333 28.041 0 47.292 19.999l74.668 75.668q18.999 19.666 18.999 46.981 0 27.314-19.666 46.351L828-551Z"/></svg>