<svg xmlns="http://www.w3.org/2000/svg" height="40" viewBox="0 -960 960 960" width="40"><path d="M482-244.667q17.667 0 29.833-12.166Q524-269 524-286.667q0-17.666-12.167-29.833-12.166-12.166-29.833-12.166-17.666 0-29.833 12.166Q440-304.333 440-286.667q0 17.667 12.167 29.834 12.167 12.166 29.833 12.166Zm-35.333-148.666h64q0-28.334 6.833-49 6.833-20.667 41.166-50.334 29.334-26 43.001-50.5 13.666-24.5 13.666-55.5 0-53.999-36.666-85.333-36.667-31.333-93.334-31.333-51.666 0-88.5 26.333Q360-662.667 344-620l57.333 22q9-24.667 29.5-42t52.5-17.333q33.334 0 52.667 18.166 19.334 18.167 19.334 44.5 0 21.334-12.667 40.167-12.667 18.833-35.334 37.834-34.666 30.333-47.666 53.999-13 23.667-13 69.334ZM480-80q-82.333 0-155.333-31.5t-127.334-85.833Q143-251.667 111.5-324.667T80-480q0-83 31.5-156t85.833-127q54.334-54 127.334-85.5T480-880q83 0 156 31.5T763-763q54 54 85.5 127T880-480q0 82.333-31.5 155.333T763-197.333Q709-143 636-111.5T480-80Zm0-66.666q139.333 0 236.334-97.334 97-97.333 97-236 0-139.333-97-236.334-97.001-97-236.334-97-138.667 0-236 97Q146.666-619.333 146.666-480q0 138.667 97.334 236 97.333 97.334 236 97.334ZM480-480Z"/></svg>