<svg xmlns="http://www.w3.org/2000/svg" height="40" viewBox="0 -960 960 960" width="40"><path d="M478-120q-145.334 0-248.834-100.834-103.5-100.833-108.499-246.5H188q4.666 118 88.166 199.334T478-186.666q123.667 0 209.5-86.5 85.834-86.501 85.834-210.167 0-121.667-86.5-205.834Q600.333-773.334 478-773.334q-68.333 0-128 31.334-59.667 31.333-102.667 83.999H354v66.667H134.667V-810h66.666v102Q253-770 325.167-805 397.333-840 478-840q75 0 140.833 28.167 65.834 28.166 115 76.666Q783-686.667 811.5-621.5T840-481.333q0 75-28.5 140.833t-77.667 114.667q-49.166 48.833-115 77.333Q553-120 478-120Zm122.667-195.333-153.333-152V-682H514v187.333l134 132-47.333 47.334Z"/></svg>