<svg xmlns="http://www.w3.org/2000/svg" height="40" viewBox="0 -960 960 960" width="40"><path d="M445.333-171.666 232-296q-15.517-9.284-24.092-24.475t-8.575-33.191v-248.001q0-18 8.575-33.191 8.575-15.192 24.092-24.475L446-785q15.667-9 34-9t34 9l214 125.667q15.517 9.283 24.092 24.475 8.575 15.191 8.575 33.191v248.001q0 18-8.75 33.191-8.75 15.191-24.583 24.475L512-171.666q-15.885 9-33.443 9-17.557 0-33.224-9Zm1.334-76.667V-459L266.666-562.667V-355l180.001 106.667Zm66.666 0L694-355v-207.667L513.333-459v210.667ZM80-687.334v-126q0-27.5 19.583-47.083T146.666-880h126v66.666h-126v126H80ZM272.666-80h-126q-27.5 0-47.083-19.583T80-146.666v-126h66.666v126h126V-80Zm414.668 0v-66.666h126v-126H880v126q0 27.5-19.583 47.083T813.334-80h-126Zm126-607.334v-126h-126V-880h126q27.5 0 47.083 19.583T880-813.334v126h-66.666ZM480-518l179.334-104.333L480-725.334 300.666-622.333 480-518Zm0 31.667ZM480-518Zm33.333 59Zm-66.666 0Z"/></svg>