<svg xmlns="http://www.w3.org/2000/svg" height="40" viewBox="0 -960 960 960" width="40"><path d="m634-422-48.667-48.666q20.334-63.001-27-108.001-47.333-45-107.667-26.666L402-654q17-10 36.833-14.666 19.834-4.667 41.167-4.667 72.333 0 122.833 50.5T653.333-500q0 21.333-5 41.5T634-422Zm128.666 128-45.999-45.333Q762-373 796.167-414.166q34.167-41.167 52.5-85.834-50-107.667-147.833-170.5Q603-733.334 486.667-733.334q-37.667 0-76.334 6.667T345.999-710l-51.333-52q37-16.333 87.667-27.167Q433-800 483.333-800q145.667 0 264 82.167Q865.667-635.667 920-500q-25 62.333-64.833 114.5-39.834 52.167-92.501 91.5ZM808-61.334 640-226.667q-35 13-76.166 19.834Q522.667-200 480-200q-147.667 0-266.333-82.167Q95-364.333 40-500q20.333-52.333 54.667-100.5 34.333-48.167 82-90.167L56-812.001l46.666-47.333 750.001 750.001-44.667 48ZM222.667-644q-34.334 26.667-65.334 66.334T110.666-500q50.667 107.667 150.167 170.5 99.5 62.834 224.5 62.834 28.667 0 56.334-3.5T586.668-280L532-335.334q-11 4.334-25 6.5-14 2.167-27 2.167-71.667 0-122.5-50.166Q306.667-427 306.667-500q0-13.667 2.167-27 2.166-13.334 6.5-25l-92.667-92.001Zm309.666 125.668Zm-127.666 63.666Z"/></svg>